<svg xmlns="http://www.w3.org/2000/svg" xmlns:xlink="http://www.w3.org/1999/xlink" width="500" zoomAndPan="magnify" viewBox="0 0 375 374.999991" height="500" preserveAspectRatio="xMidYMid meet" version="1.0"><defs><clipPath id="id1"><path d="M 147.339844 132.589844 L 256.839844 132.589844 L 256.839844 242 L 147.339844 242 Z M 147.339844 132.589844 " clip-rule="nonzero"/></clipPath></defs><g clip-path="url(#id1)"><path fill="#ffffff" d="M 202.359375 132.792969 C 172.277344 132.792969 147.882812 155.144531 147.882812 182.730469 C 147.882812 193.550781 151.675781 203.539062 158.066406 211.722656 L 148.230469 235.46875 C 147.273438 237.789062 148.371094 240.441406 150.6875 241.402344 C 151.847656 241.878906 153.089844 241.847656 154.160156 241.402344 L 183.128906 229.402344 C 189.113281 231.480469 195.578125 232.667969 202.359375 232.667969 C 232.457031 232.667969 256.839844 210.300781 256.839844 182.730469 C 256.839844 155.144531 232.457031 132.792969 202.359375 132.792969 Z M 179.660156 189.539062 C 175.898438 189.539062 172.851562 186.492188 172.851562 182.730469 C 172.851562 178.960938 175.898438 175.921875 179.660156 175.921875 C 183.421875 175.921875 186.472656 178.960938 186.472656 182.730469 C 186.472656 186.492188 183.421875 189.539062 179.660156 189.539062 Z M 202.359375 189.539062 C 198.597656 189.539062 195.550781 186.492188 195.550781 182.730469 C 195.550781 178.960938 198.597656 175.921875 202.359375 175.921875 C 206.121094 175.921875 209.171875 178.960938 209.171875 182.730469 C 209.171875 186.492188 206.121094 189.539062 202.359375 189.539062 Z M 225.058594 189.539062 C 221.296875 189.539062 218.25 186.492188 218.25 182.730469 C 218.25 178.960938 221.296875 175.921875 225.058594 175.921875 C 228.820312 175.921875 231.871094 178.960938 231.871094 182.730469 C 231.871094 186.492188 228.820312 189.539062 225.058594 189.539062 Z M 225.058594 189.539062 " fill-opacity="1" fill-rule="nonzero"/></g></svg>